<svg width="49" height="46" viewBox="0 0 49 46" fill="none" xmlns="http://www.w3.org/2000/svg">
<g filter="url(#filter0_d_42078_438)">
<path opacity="0.5" d="M44.0652 0.256714L34.2601 34.9917C34.2102 35.1494 34.0108 35.1967 33.8945 35.0863L27.3301 28.8583L32.2492 11.4514C32.2991 11.2937 32.1495 11.1518 31.9833 11.1991L13.6362 15.8662L7.10498 9.66969C6.98865 9.55932 7.03851 9.37011 7.20469 9.32281L43.7993 0.00444022C43.9655 -0.027094 44.115 0.11481 44.0652 0.256714Z" fill="#00B37E"/>
<path opacity="0.5" d="M27.3297 28.858L24.8037 37.8452C24.7538 38.0029 24.5544 38.0502 24.4381 37.9398L4.0634 18.6251C3.94707 18.5147 3.99692 18.3255 4.16311 18.2782L13.6358 15.8658L27.3297 28.858Z" fill="#00B37E"/>
<path d="M32.2484 11.4511L27.3292 28.858L13.6353 15.8659L31.9825 11.1988C32.1487 11.1515 32.2982 11.2934 32.2484 11.4511Z" fill="#00B37E"/>
</g>
<defs>
<filter id="filter0_d_42078_438" x="0" y="0" width="48.0749" height="46" filterUnits="userSpaceOnUse" color-interpolation-filters="sRGB">
<feFlood flood-opacity="0" result="BackgroundImageFix"/>
<feColorMatrix in="SourceAlpha" type="matrix" values="0 0 0 0 0 0 0 0 0 0 0 0 0 0 0 0 0 0 127 0" result="hardAlpha"/>
<feOffset dy="4"/>
<feGaussianBlur stdDeviation="2"/>
<feComposite in2="hardAlpha" operator="out"/>
<feColorMatrix type="matrix" values="0 0 0 0 0 0 0 0 0 0 0 0 0 0 0 0 0 0 0.25 0"/>
<feBlend mode="normal" in2="BackgroundImageFix" result="effect1_dropShadow_42078_438"/>
<feBlend mode="normal" in="SourceGraphic" in2="effect1_dropShadow_42078_438" result="shape"/>
</filter>
</defs>
</svg>
